# xmcd
#
# Track frame offsets:
#	150
#	10781
#	44615
#	83812
#	115143
#	171661
#	205449
#
# Disc length: 3494 seconds
#
# Revision: 0
# Processed by: cddbd v1.4PL0 Copyright (c) Steve Scherf et al.
# Submitted via: EasyCDDAExtractor 4.6.0.1
#
DISCID=5d0da407
DTITLE=John Butler Trio - Live Bimbo's 365 Club
DYEAR=2002
DGENRE=Rock/Blues
TTITLE0=Intro - Tuning
TTITLE1=Losing My Cool
TTITLE2=Betterman
TTITLE3=Hey
TTITLE4=Don't Understand
TTITLE5=Pickapart
TTITLE6=Take
EXTD=
EXTT0=
EXTT1=
EXTT2=
EXTT3=
EXTT4=
EXTT5=
EXTT6=
PLAYORDER=
